<?xml version="1.0" standalone="no"?>
<!DOCTYPE svg PUBLIC "-//W3C//DTD SVG 1.1//EN" "http://www.w3.org/Graphics/SVG/1.1/DTD/svg11.dtd">
<svg xmlns="http://www.w3.org/2000/svg">
<metadata>Copyright (C) 2017 by original authors @ fontello.com</metadata>
<defs>
<font id="fontello" horiz-adv-x="1000" >
<font-face font-family="fontello" font-weight="400" font-stretch="normal" units-per-em="1000" ascent="850" descent="-150" />
<missing-glyph horiz-adv-x="1000" />
<glyph glyph-name="digital-arts" unicode="&#xe800;" d="M83 288v-42h42v42h-42z m84 375h-42v-42h-42v-42h84v84z m0-209h-42v-125h42v42h41v167h42v41h-83v-125z m83 250h-83v-41h83v41z m83-333h84v125h-84v-125z m250 0h84v125h-84v-125z m-291 208v42h83v83h42v-83h166v83h42v-83h83v-42h42v84h-83v83h-125v-83h-84v83h-125v-83h-83v-84h42z m-250 0v-291h41v291h-41z m833-333h42v42h-42v-42z m42 333v42h-42v42h-42v-84h84l0-291h41v291h-41z m-84 125h-83v-41h83v41z m-41-500h-125v-83h-84v83h-166v-83h-84v83h-125v42h-83v-42h42v-41h125v-84h-125v-125h166v125h125v84h84v-84h125v-125h166v125h-125v84h125v41h42v42h-83v-42z m-500-208h-84v42h84v-42z m500 42v-42h-84v42h84z m0 500v-167h41v-42h42v125h-42v84h0v41h-83v-41h42z" horiz-adv-x="1000" />

<glyph glyph-name="comic-design" unicode="&#xe801;" d="M371 365c-21 8-42 12-65 12-43 0-91-17-127-48-2-73 40-141 96-169 17-8 33-10 52-10 48 0 100 21 140 46 2 73-40 142-96 169z m-42-175c-12 0-25 2-33 6-38 19-67 64-71 110 21 21 50 29 81 29 17 0 34-4 48-10 38-17 65-60 71-108-33-17-69-27-96-27z m298 175c-56-27-98-96-96-169 40-25 92-46 140-46 19 0 35 4 52 10 56 28 98 96 96 169-36 34-84 48-127 48-23 0-46-4-65-12z m79-167c-10-4-21-6-33-6-29 0-63 10-96 27 6 46 33 89 71 108 10 6 27 8 44 8 29 0 60-10 85-27-4-48-33-93-71-110z m292 458c0 52-13 102-38 148l-8 17-17-6c-66-25-104-57-135-82-25-20-46-37-77-45-8-3-19-3-33 0-63 39-134 43-190 43-56 0-127-6-190-43-12-3-25-3-35 0-29 6-48 22-73 43-33 25-71 57-137 82l-19 6-8-15c-25-46-38-96-38-148 0-77 27-148 79-208 11-10 23-27 34-46-13-44-17-89-17-139 0-121 39-236 108-323l17-21 17 21c66 85 162 135 262 135 100 0 194-48 260-135l17-21 17 21c71 87 108 202 108 323 0 47-6 93-17 139 11 17 19 31 34 44 50 58 79 133 79 210z m-500 34c67 0 115-9 154-30-31-39-129-135-154-139-25 2-123 98-154 139 39 21 87 30 154 30z m346-275l-4-7 2-8c12-44 18-90 18-135 0-102-29-198-83-278-73 86-171 132-277 132-106 0-206-48-279-132-54 78-83 176-83 278 0 48 6 93 18 135l2 8-4 7c-12 25-31 45-41 60-46 54-71 115-71 181 0 40 8 77 25 111 50-21 79-46 106-69 27-23 52-44 92-52 12-2 25-2 37 0 15-23 46-54 73-81 85-86 113-86 123-86s35 0 123 86c27 27 56 58 73 81 12-2 27-2 39 2 40 8 65 31 94 52 25 21 54 46 104 67 17-36 25-73 25-111 0-66-25-131-68-179-17-17-32-37-44-62z" horiz-adv-x="1000" />

<glyph glyph-name="arrow-right" unicode="&#xe802;" d="M827 335l15 15-15 15c0 0 0 0 0 0l-312 312c-9 8-21 8-30 0s-8-21 0-29l278-277h-575c-13 0-21-8-21-21s8-21 21-21h575l-278-277c-8-8-8-21 0-29 5-4 11-6 15-6s10 2 15 6l312 312c0 0 0 0 0 0z" horiz-adv-x="1000" />

<glyph glyph-name="anthropology" unicode="&#xe80a;" d="M485 848c-208-8-379-179-385-390-4-100 31-198 96-273 25-29 42-60 48-93l10-52c23-111 123-190 236-190h20c113 0 213 79 236 190l12 56c7 31 21 60 46 87 65 73 98 167 98 265 2 225-187 408-417 400z m288-638c-29-33-46-68-54-106l-13-56c-18-92-100-158-193-158h-21c-94 0-175 66-194 158l-10 52c-9 40-28 77-59 113-60 68-89 154-87 245 6 184 160 340 346 348 4 0 10 0 14 0 198 0 361-162 361-360 0-88-32-171-90-236z m-46 386c-21 21-48 31-77 31s-56-10-77-31-31-48-31-77 10-56 31-77c29-29 90-59 137-59 23 0 42 7 55 19 48 50-2 158-38 194z m8-163c-6-6-16-6-25-6-35 0-87 25-108 46-12 12-19 29-19 48 0 19 7 35 19 48s52 35 94 0c33-36 60-115 39-136z m-272 86c0 29-11 56-32 77s-48 31-77 31-56-10-77-31-39-56-50-90c-14-46-10-81 11-102 12-12 31-19 54-19l0 0c48 0 110 30 137 59 23 21 34 48 34 75z m-61-46c-21-21-73-46-108-46-9 0-19 2-25 6-9 9-11 34 0 61 8 27 25 58 39 73 13 12 30 18 48 18s36-6 48-18 19-29 19-48c-2-17-8-34-21-46z m277-331h-27v18c0 13-8 21-21 21s-21-8-21-21v-16h-45v16c0 13-9 21-21 21s-21-8-21-21v-16h-42v16c0 13-8 21-21 21s-20-8-20-21v-16h-44v16c0 13-8 21-21 21s-21-8-21-21v-16h-27c-12 0-21-9-21-21s9-21 21-21h27v-17c0-12 9-20 21-20s21 8 21 20v17h44v-17c0-12 8-20 20-20s21 8 21 20v17h42v-17c0-12 8-20 21-20s21 8 21 20v17h43v-17c0-12 9-20 21-20s21 8 21 20v17h27c13 0 21 8 21 21 2 10-8 19-19 19z m-289 116c8-8 20-8 29 0l83 84 83-84c5-4 11-6 15-6 6 0 10 2 15 6 8 9 8 21 0 30l-98 97c-9 9-21 9-29 0l-98-97c-9-7-9-21 0-30z" horiz-adv-x="1000" />

<glyph glyph-name="architecture" unicode="&#xe80b;" d="M385 129h21v452h-21c-125 0-227-102-227-227 0-125 102-225 227-225z m-22 409v-367c-92 12-163 92-163 183s71 173 163 184z m543 185h-341v127h-200v-110c-207-13-365-180-365-386s158-373 363-383v-111h200v94h395v475h40l-92 294z m-752-525l-21 37-54-31c-6 15-12 29-19 44l30 8-11 42-29-10c-4 14-4 31-6 45h62v42h-62c0 15 2 31 6 46l29-8 11 41-30 9c5 14 11 29 19 43l54-31 21 38-54 31c8 12 19 25 29 37l21-21 29 30-21 20c13 11 25 21 38 30l31-55 38 21-32 54c15 7 30 13 44 19l8-29 42 10-8 30c14 4 31 4 46 6v-63h41v175h115v-52h-31v-41h31v-52h-63v-42h63v-52h-31v-42h31v-52h-63v-42h63v-52h-31v-41h31v-52h-63v-42h63v-52h-31v-42h31v-52h-63v-42h63v-52h-31v-41h31v-53h-117v173h-41v-62c-15 0-32 2-46 6l8 29-42 11-8-29c-15 4-29 10-44 18l32 55-38 20-31-54c-13 9-25 19-38 29l21 21-29 29-21-20c-10 12-21 25-29 37l56 23z m411 483h310l67-210h-377v210z m0-568h283v231h-283v83h352v-431h-352v117z m241 189v-148h-116v148h116z m-241-148v148h83v-148h-83z" horiz-adv-x="1000" />

<glyph glyph-name="art-design" unicode="&#xe80c;" d="M500 733c13 0 21 9 21 21v69c0 12-8 21-21 21s-21-9-21-21v-69c0-12 9-21 21-21z m-179-33c4-6 10-10 19-10 4 0 6 0 10 2 10 6 13 18 8 29l-35 60c-6 11-19 13-29 9-11-7-13-19-9-30l36-60z m-169-90l61-35c4-2 6-2 10-2 6 0 15 4 19 10 6 11 2 23-9 30l-60 33c-10 6-23 2-29-8-4-9-2-21 8-28z m48-177c0 13-8 21-21 21h-69c-12 0-20-8-20-21s8-20 20-20h69c13 0 21 10 21 20z m13-141l-61-36c-10-6-12-18-8-29 4-6 10-10 19-10 4 0 6 0 10 2l60 35c11 6 13 19 9 29-7 11-19 15-29 9z m137-117c-10 6-23 2-29-8l-36-61c-6-10-2-23 9-29 4-2 6-2 10-2 6 0 15 4 19 10l35 61c7 10 2 23-8 29z m329-8c-6 10-19 12-29 8-10-6-12-19-8-29l35-61c4-6 11-10 19-10 4 0 6 0 10 2 11 6 13 19 9 29l-36 61z m169 89l-60 36c-11 6-23 2-30-9s-2-23 9-29l60-35c4-2 6-2 11-2 6 0 14 4 18 10 4 13 2 25-8 29z m42 198h-69c-13 0-21-8-21-21s8-20 21-20h69c12 0 20 8 20 20s-10 21-20 21z m-113 119c4 0 6 0 11 2l60 35c10 7 12 19 8 30-6 10-18 12-29 8l-60-35c-11-7-13-19-9-30 5-6 13-10 19-10z m-127 121c4-2 6-2 10-2 7 0 15 4 19 10l36 61c6 10 2 22-9 29-10 6-23 2-29-9l-35-60c-7-10-2-25 8-29z m113-261c0 146-117 265-263 265s-262-119-262-265c0-108 64-200 158-241v-223c0 0 0 0 0 0s0 0 0 0v-25c0-48 39-88 87-88h34c48 0 87 40 87 88v248c94 41 159 133 159 241z m-200-489c0-25-21-46-46-46h-34c-25 0-45 21-45 46v4h125v-4z m0 46h-125l0 277c0 12 10 21 20 21 13 0 21-11 21-21 0 0 0-2 0-2 0 0 0-2 0-2v-117c0-13 9-21 21-21s21 8 21 21v117c0 0 0 2 0 2 0 0 0 2 0 2 0 12 10 21 21 21s21-11 21-21v-277z m-115 339l52 113 52-113c-4 0-6 0-10 0-17 0-32-6-42-16-10 10-25 16-42 16-4 2-6 0-10 0z m156-89v70c0 3 0 7-2 9l-83 183c-4 8-11 13-19 13s-15-5-19-13l-83-183c-2-4-2-6-2-9v-41c0 0 0 0 0 0 0 0 0 0 0 0v-29c-69 37-117 110-117 195 0 123 100 221 221 221s221-100 221-223c0-83-46-158-117-193z m-104-152c-12 0-21-9-21-21v-23c0-13 9-21 21-21s21 8 21 21v23c0 10-8 21-21 21z" horiz-adv-x="1000" />

<glyph glyph-name="biology" unicode="&#xe80d;" d="M596 110c92 40 156 132 156 240 0 106-62 200-152 240 56 25 100 68 127 125l0 0c17 33 25 73 25 112 0 13-8 21-21 21s-21-8-21-21c0-29-6-58-16-83h-184c-12 0-20-9-20-21s8-21 20-21h161c-38-56-100-92-171-92-104 0-192 82-208 186h260c13 0 21 8 21 21s-8 21-21 21h-264c-3 8-11 12-19 12-13 0-21-8-21-21 0-4 0-8 0-12l0 0 0 0c4-102 67-188 152-225-90-40-152-132-152-240s65-202 156-239c-91-40-156-132-156-240 0-13 8-21 21-21s21 8 21 21c0 31 6 60 16 87h194c13 0 21 9 21 21s-8 21-21 21h-169c38 54 100 90 169 90 104 0 190-79 206-182h-258c-13 0-21-8-21-20s8-21 21-21h265c2-9 10-15 18-15 13 0 21 8 21 21 0 0 8 158-156 235z m-258 105h189c13 0 21 8 21 20s-8 21-21 21h-217c-14 29-20 61-20 96 0 33 8 67 20 96h217c13 0 21 8 21 21s-8 21-21 21h-189c39 50 97 81 162 81 108 0 198-88 208-198h-260c-13 0-21-8-21-21s8-21 21-21h260c-10-110-100-198-208-198-67-2-125 30-162 82z" horiz-adv-x="1000" />

<glyph glyph-name="biophysics" unicode="&#xe80e;" d="M500 427c21 0 40-8 54-23 29-29 29-77 0-108-14-15-33-23-54-23s-40 8-54 23c-29 29-29 77 0 108 14 15 33 23 54 23m0 42c-31 0-60-13-83-36-46-45-46-120 0-166 23-23 52-36 83-36s60 13 83 36c46 46 46 121 0 166-23 23-52 36-83 36l0 0z m0 339c92 0 192-187 192-458s-100-458-192-458-192 187-192 458 100 458 192 458m0 42c-129 0-233-223-233-500s104-500 233-500 233 223 233 500-104 500-233 500l0 0z m0-308c271 0 458-102 458-192s-187-192-458-192-458 100-458 192 187 192 458 192m0 41c-277 0-500-104-500-233s223-233 500-233 500 104 500 233-223 233-500 233l0 0z" horiz-adv-x="1000" />

<glyph glyph-name="chemistry" unicode="&#xe80f;" d="M960 83l-308 342v250h50c13 0 21 8 21 21v133c0 13-8 21-21 21h-404c-13 0-21-8-21-21v-133c0-13 8-21 21-21h50v-250l-308-342c-34-37-48-91-34-137 15-59 63-96 117-96h752c54 0 102 37 119 96 14 46 2 100-34 137z m-641 634v91h362v-91h-362z m635-761c-10-39-41-64-79-64h-752c-35 0-67 27-79 64-11 34 0 73 25 100l312 348c4 4 7 9 7 15v256h222v-258c0-4 3-11 7-15l312-348c25-25 36-64 25-98z m-596 277c-56 0-102-45-102-102s46-102 102-102 102 46 102 102-45 102-102 102z m0-162c-33 0-60 27-60 60 0 34 27 61 60 61s61-27 61-61-27-60-61-60z m223 310c0 44-35 82-81 82-44 0-81-36-81-82 0-43 35-81 81-81 44 2 81 38 81 81z m-81-37c-21 0-40 16-40 39s17 40 40 40c21 0 40-17 40-40s-19-39-40-39z m156-192c-58 0-106-48-106-106s48-106 106-106c59 0 107 47 107 106s-48 106-107 106z m0-169c-35 0-64 30-64 65 0 35 29 65 64 65 36 0 65-30 65-65 0-35-29-65-65-65z" horiz-adv-x="1000" />

<glyph glyph-name="comic-arts" unicode="&#xe810;" d="M883 419l107 46-102 56 33 71-144 68-73 186-52-86-27 46-69-58-227 98 50-111h-329l104-114-137-77 89-38-98-89 171 8c-52-19-89-69-89-129 0-61 37-115 93-131 30-155 157-263 307-263s277 111 306 263c54 16 94 68 94 131 0 31-11 60-27 83l20 40z m-768 131l108 60-75 82h298l-31 71 148-65 50 42 37-65 46 73 48-121 121-58-32-69 61-33-40-17-37-71-129 192-32-92-93 86-19-73-86 60-10-77-65 56-20-96-90-8-17-33-58 71-75-5 60 57-68 33z m731-256c0-46-31-86-73-92l-15-2-2-17c-21-139-133-241-266-241s-248 102-269 241l-2 15-15 2c-41 8-73 46-73 92 0 48 34 87 77 93l57-68 35 71 98 8 12 56 71-60 11 85 79-56 17 64 87-81 25 73 119-179 21 37c2-12 6-27 6-41z m-398-13l-233 23c0 0 89-150 154-146 62 5 79 123 79 123z m-75-75c-15-6-33 2-40 17-6 15 2 33 17 40 15 6 33-3 40-17 6-17-2-33-17-40z m235 115c-60-23-89-92-89-92s89-75 152-27c62 48 71 113 71 113s-73 29-134 6z m34-77c-2-17-17-27-34-25-16 2-27 16-25 33 2 17 17 27 34 25 16-2 27-17 25-33z m-32-123c-85-102-202-29-208-25-10 6-23 4-29-6-6-11-4-23 6-30 27-16 71-35 121-35 48 0 100 17 144 69 8 8 6 23-2 29-11 8-23 6-32-2z" horiz-adv-x="1000" />

<glyph glyph-name="computer-science" unicode="&#xe812;" d="M917 850h-834c-45 0-83-37-83-83v-592c0-46 38-83 83-83h269l-50-117 0 0c-37-19-62-58-62-104 0-13 8-21 20-21h482l0 0c12 0 21 8 21 21 0 2 0 2 0 4-3 44-28 79-63 98 0 2-2 4-2 4l-48 113h267c46 0 83 37 83 83v594c0 46-37 83-83 83z m-200-958h-434c9 31 38 54 73 54h290c33 0 62-23 71-54z m-365 95l44 105h206l44-105 0 0h-292-2z m606 188c0-23-18-42-41-42h-834c-23 0-41 19-41 42v73h916v-73z m0 115h-916v477c0 23 18 41 41 41h834c23 0 41-18 41-41v-477z m-437-80h-42c-12 0-21-8-21-20 0-13 9-21 21-21h42c12 0 21 8 21 21 0 10-11 20-21 20z" horiz-adv-x="1000" />

<glyph glyph-name="data-science" unicode="&#xe813;" d="M979 633c13 0 21 9 21 21v175c0 13-8 21-21 21h-958c-13 0-21-8-21-21v-175c0-12 8-21 21-21h458v-54h-458c-13 0-21-8-21-21v-175c0-12 8-20 21-20h458v-55h-458c-13 0-21-8-21-20v-175c0-13 8-21 21-21h458v-54h-66c-13 0-21-9-21-21v-52h-244c-13 0-21-9-21-21s8-21 21-21h244v-52c0-13 8-21 21-21h175c12 0 20 8 20 21v52h244c13 0 21 8 21 21s-8 21-21 21h-244v52c0 12-8 21-20 21h-67v54h458c13 0 21 8 21 21v175c0 12-8 20-21 20h-458v55h458c13 0 21 8 21 20v175c0 13-8 21-21 21h-458v54h458z m-412-741h-134v102h134v-102z m391 239h-916v136h916v-136z m0 273h-916v134h916v-134z m-916 404h916v-133h-916v133z m793-87h42c13 0 21 8 21 21s-8 21-21 21h-42c-12 0-20-9-20-21s8-21 20-21z m-120 0h41c13 0 21 8 21 21s-8 21-21 21h-41c-13 0-21-9-21-21s10-21 21-21z m120-271h42c13 0 21 8 21 21s-8 21-21 21h-42c-12 0-20-9-20-21s8-21 20-21z m-120 0h41c13 0 21 8 21 21s-8 21-21 21h-41c-13 0-21-9-21-21s10-21 21-21z m120-271h42c13 0 21 9 21 21s-8 21-21 21h-42c-12 0-20-8-20-21s8-21 20-21z m-120 0h41c13 0 21 9 21 21s-8 21-21 21h-41c-13 0-21-8-21-21s10-21 21-21z" horiz-adv-x="1000" />

<glyph glyph-name="physics" unicode="&#xe814;" d="M873 450c46 110 46 208-10 263-28 27-69 43-117 43-44 0-94-12-146-33-62 79-131 127-198 127-12 0-23-2-35-4-69-19-117-90-136-198-2-8-2-17-4-25-123-17-204-67-223-140-21-75 29-160 123-233-46-110-46-208 11-263 27-27 68-43 116-43 44 0 94 12 146 33 63-79 131-127 198-127 12 0 23 2 35 4 69 19 117 90 136 198 2 8 2 17 4 25 123 17 204 67 223 140 21 77-29 160-123 233z m-127 265c37 0 67-11 87-32 42-41 40-118 5-208-40 27-88 52-140 73-21 52-46 98-73 140 44 16 83 27 121 27z m-42-311c11-39 19-77 23-114-23-30-102-125-167-167-75 8-191 46-227 60-14 36-27 73-37 113s-19 77-23 114c23 30 108 128 167 167 37-6 148-25 227-60 14-36 27-73 37-113z m-60 167c-25 8-106 35-159 42 34 22 67 43 100 58 21-29 40-65 59-100z m-267 235c8 0 17 2 25 2 50 0 106-39 158-104-43-21-89-50-133-83-56 10-142 6-156 6 0 4 12 144 106 179z m-112-221c27 5 93 0 116 0-21-16-83-77-114-114-4 37-4 77-2 114z m-27-220c4-27 25-117 41-157-37 17-71 38-100 57 17 31 36 66 59 100z m-194 108c14 54 81 94 179 108-4-50-2-102 6-158-33-44-62-90-83-133-75 60-117 127-102 183z m210-488c-37 0-66 11-87 32-42 41-40 118-4 208 39-27 87-52 139-73 21-52 46-98 73-139-44-17-83-28-121-28z m102 144c25-8 117-33 159-41-34-23-67-44-100-59-21 29-40 65-59 100z m371-69c-17-91-54-152-106-164-8-2-17-2-23-2-50 0-106 39-158 104 43 21 89 50 133 83 71-8 142-6 156-6 0-6 0-10-2-15z m8 55c-16-2-64-7-116 0 21 16 91 85 114 114 5-37 5-77 2-114z m28 220c-5 28-11 53-19 80-6 27-15 52-25 77 37-17 71-38 100-57-15-31-34-66-56-100z m193-108c-14-54-81-94-179-108 4 50 2 102-6 158 33 44 62 90 83 133 75-60 117-127 102-183z m-456 242c-31 0-60-13-83-36-46-45-46-120 0-166 23-23 52-36 83-36s60 13 83 36c46 46 46 121 0 166-23 23-52 36-83 36z m54-173c-29-29-79-29-108 0s-29 79 0 108c14 15 33 23 54 23s40-8 54-23c29-29 29-79 0-108z" horiz-adv-x="1000" />

<glyph glyph-name="political-science" unicode="&#xe815;" d="M500 850c-275 0-500-225-500-500s225-500 500-500 500 225 500 500-225 500-500 500z m458-479h-175c-4 181-60 333-141 414 177-56 308-220 316-414z m-479 435v-435h-221c7 229 100 417 221 435z m0-477v-435c-121 18-214 206-221 435h221z m42-435v435h221c-7-229-100-417-221-435z m0 477v435c121-18 214-206 221-435h-221z m-161 414c-83-81-139-235-141-414h-177c8 194 139 358 318 414z m-318-456h175c4-181 60-333 141-414-177 56-308 220-316 414z m598-414c83 81 139 235 141 414h177c-8-194-139-358-318-414z" horiz-adv-x="1000" />

<glyph glyph-name="psychology" unicode="&#xe816;" d="M500 850c-231 0-421-187-421-421 0-229 188-579 421-579 231 0 421 350 421 579 0 234-190 421-421 421z m0-958c-206 0-379 331-379 537 0 211 171 379 379 379s379-168 379-379c0-206-173-537-379-537z m315 616c-5 5-9 9-15 11-17 2-160 21-210-13-55-35-71-108-38-164 17-27 44-46 73-52s65-2 90 16c50 32 95 171 102 186 2 4 0 10-2 16z m-121-168c-36-23-84-11-106 23-23 35-11 83 22 106 25 16 103 14 159 10-17-54-50-123-75-139z m-238 10c32 56 11 129-48 163-52 29-195 2-210 0-6-3-10-7-15-11-2-4-2-12-2-19 7-14 59-150 113-177 29-14 60-18 89-10 34 4 59 25 73 54z m-139-10c-25 14-61 81-86 133 57 10 134 15 159 0 35-21 50-69 31-104-21-36-69-50-104-29z m337-209c9 9 9 21 0 29s-21 9-29 0c-69-68-183-68-252 0-4 5-10 7-15 7-6 0-10-2-14-7-9-8-9-20 0-29 83-85 225-85 310 0z" horiz-adv-x="1000" />

<glyph glyph-name="social-good" unicode="&#xe817;" d="M327 271l0 0c-21 21-54 21-75 0-10-11-17-23-17-38s7-27 17-37l67-67h-21l-106 117v200c0 31-25 56-57 56-31 0-56-25-56-56v-265c0-21 6-43 21-60l123-165v-81c0-13 10-21 21-21h214c13 0 21 11 21 21v235c0 7-2 11-6 15l-146 146z m-69-296l-127 169c-8 10-12 23-12 35v265c0 4 2 8 4 10 2 2 6 4 10 4 0 0 0 0 0 0 9 0 15-6 15-14v-209c0-6 2-10 6-14l117-127c6-6 12-11 21-11 0 0 0 0 0 0h58c0 0 0 0 0 0 8 0 15 2 21 9 6 6 8 12 8 21 0 8-2 14-8 20l-90 92c-2 2-4 4-4 8s2 7 4 9c4 4 13 4 17 0l140-142v-206h-175v66c0 7-3 11-5 15z m261 300c0 50 41 92 91 94 0 0 0 0 0 0 36 0 67 12 92 37 25 25 38 57 38 92 0 46-23 87-63 110 2 9 4 19 4 27 0 50-33 94-79 107 0 58-48 104-106 104s-106-48-106-104c-48-15-80-59-80-107 0-10 3-18 5-27-30-16-48-45-59-77-8-33-4-68 13-98 23-39 66-64 112-64 0 0 0 0 0 0 52 0 94-42 94-94v-73c0-12 10-21 21-21s21 11 21 21v73z m-2 144l98 98c8 8 8 23-2 29-9 8-21 8-30 0l-66-69v90l56 56c8 8 8 23-2 29-8 8-21 8-29 0l-27-27v138c0 12-11 20-21 20s-21-10-21-20v-134l-27 27c0 4-6 7-13 7-6 0-10-3-14-7-9-8-9-21 0-29l56-56v-92l-69 69c-4 4-10 4-16 4-7 0-11-4-15-8-4-6-4-17 0-25l98-98v-48c-25 23-58 37-92 37-48 0-87 40-87 88 0 35 21 67 54 81 6 2 8 6 10 13s2 10 0 16c-8 17-8 36-2 52 7 17 19 32 36 40 8 2 16 4 23 4 6 0 10 4 14 9 4 4 6 10 4 14 0 0 0 2 0 2 0 4-2 9-2 13 0 35 29 64 63 64 35 0 62-29 62-64 0-4 0-9-2-13 0-6 0-10 4-16 5-5 9-9 15-9 0 0 2 0 2 0 38-4 65-37 63-75 0-8-3-14-7-23-4-10 0-23 11-29 21-8 37-25 48-48 8-21 8-46 0-66-15-34-46-55-82-55-35 0-68-14-93-37v48z m343 81l0 0c-31 0-56-25-56-56v-200l-106-117h-21l67 67c10 10 16 23 16 37 0 15-6 27-16 38-21 21-54 21-75 0l-146-146c-4-4-6-8-6-15v-237c0-13 10-21 21-21h216c13 0 21 10 21 21v83l123 165c12 16 21 39 21 60v265c-2 31-27 56-59 56z m-147-258c2-2 4-4 4-9 0-2-2-6-4-8l-90-90c-6-6-8-12-8-20s2-15 8-21c6-6 12-9 21-9h58c8 0 17 5 21 11l117 127c4 4 6 8 6 15v208c0 4 2 8 4 10 2 2 6 4 10 4 0 0 0 0 0 0 9 0 15-6 15-14v-265c0-12-4-25-12-35l-128-171c-2-4-4-8-4-13v-66h-175v204l140 140c4 6 12 6 17 2z" horiz-adv-x="1000" />

<glyph glyph-name="social-science" unicode="&#xe818;" d="M498 706c-31 0-60-8-88-23-25 15-54 25-81 25-81 0-150-66-150-150s67-150 150-150c19 0 34 2 48 9 31-32 75-48 121-48s90 19 121 48c14-4 33-9 48-9 81 0 150 67 150 150s-67 150-150 150c-32 0-59-10-82-25-27 17-58 23-87 23m-281-148c0 61 52 113 112 113 19 0 36-4 52-13-31-31-52-75-52-120 0-34 11-61 25-88-8-2-14-2-25-2-64-2-112 50-112 110m281-154c-71 0-133 59-133 134 0 70 58 133 133 133 71 0 133-58 133-133s-62-134-133-134m169 267c60 0 112-52 112-113s-52-112-112-112c-9 0-15 0-25 2 14 25 25 56 25 87 0 48-21 90-52 121 18 11 33 15 52 15m318-567c-2 56-8 109-14 148v2c-2 21-11 42-21 65v2c-10 19-27 35-46 46-4 2-12 8-21 10l-110 38-44-84-108 38-108-200h-34l-108 200-108-38-44 84-109-38c-8-2-14-4-20-10-21-11-36-29-46-46l-2-4c-13-21-19-44-21-65v-2c-4-42-11-92-15-148v-21h132c-3-21-3-43-5-68v-21h732v21c-2 25-2 47-5 68h132l-7 23z m-937 17c2 48 8 89 12 125v4c3 17 9 31 17 52 8 13 19 23 33 33 5 3 11 5 15 9l79 27 29-54c-25-11-45-29-58-52-15-30-25-57-25-84 0-4-4-25-8-56h-94v-4z m125-90c4 92 15 138 15 138v4c0 21 8 44 20 67 13 20 34 37 57 45l89 34 102-192h79l103 192 89-31c8-3 13-5 19-9 14-10 27-21 37-37v-2c11-21 19-38 21-57v-4c4-41 11-91 15-148h-646z m679 90c-2 23-4 44-8 64v3c-2 22-11 47-25 70v2c-13 21-31 38-54 53l27 54 75-29 14-9c13-8 23-19 34-31v-2c10-19 14-33 18-48v-4c5-36 11-77 13-125h-94v2z" horiz-adv-x="1000" />

<glyph glyph-name="technology" unicode="&#xe819;" d="M892 542h-73c-13 0-21-9-21-21v-36h-56v36c0 12-9 21-21 21h-90v71h38c12 0 21 8 21 20v196c0 13-9 21-21 21h-342c-12 0-21-8-21-21v-194c0-12 9-20 21-20h38v-71h-90c-12 0-21-9-21-21v-35h-56v35c0 12-8 21-21 21h-73c-12 0-21-9-21-21v-321c0-12 9-21 21-21h73c13 0 21 9 21 21v165h56v-165c0-12 9-21 21-21h33v-206h-4c-12 0-21-8-21-21v-83c0-13 9-21 21-21h140c12 0 21 8 21 21v83c0 13-9 21-21 21h-4v204h120v-204h-4c-12 0-21-8-21-21v-83c0-13 9-21 21-21h140c12 0 21 8 21 21v83c0 13-9 21-21 21h-4v204h33c13 0 21 9 21 21v165h56v-165c0-12 8-21 21-21h73c12 0 21 9 21 21v321c-4 12-15 21-25 21z m-638-136h-77c-12 0-21-8-21-21v-164h-31v279h31v-35c0-13 9-21 21-21h77v-38z m94 250v152h300v-152h-300z m242-41v-71h-184v71c0 0 184 0 184 0z m-169-723h-98v41h4 90 4v-41z m-73 83v204h48v-204h-48z m325-83h-98v41h4 90 4v-41z m-73 83v204h48v-204h-48z m100 490v-80-164h-404v164 80 35h406l-2-35 0 0z m171-244h-31v164c0 13-9 21-21 21h-77v38h77c12 0 21 8 21 21v35h31v-279z m-373 233c-52 0-94-41-94-94s42-93 94-93 94 41 94 93-42 94-94 94z m0-144c-29 0-52 23-52 53s23 50 52 50 52-23 52-53-23-50-52-50z" horiz-adv-x="1000" />

<glyph glyph-name="earth-science" unicode="&#xe81a;" d="M781 152c182 181 182 475 0 656-8 9-21 9-29 0l-52-52c-67 59-152 94-248 94-73 0-139-21-198-58 0 0-2 0-2-2-96-63-162-169-169-294v-2-2c0-4 0-9 0-13 0-94 36-181 94-246l-52-52c-8-8-8-21 0-29 88-87 204-135 329-135 15 0 29 0 44 2v-127h-160c-13 0-21-9-21-21s8-21 21-21h364c13 0 21 8 21 21s-8 21-21 21h-160v133c87 17 173 60 239 127z m-6 390c0-2-2-2-2-4-8-13-35-36-56-34-29 4-42 17-48 38-6 31 4 56 33 75 15 10 23 23 29 35 21-33 36-71 44-110z m-83 162c6-33 0-44-11-52-43-29-62-71-52-119 9-39 36-62 81-70 5 0 7 0 11 0 23 0 46 12 60 25 0-3 0-5 0-9 0-137-85-256-208-304-2 6-4 13-4 23-4 27-11 69-73 85-38 17-77 13-111-10-31-21-54-56-64-92-38 17-71 40-98 67l0 0 0 0c-60 58-96 137-98 225 52 6 79 69 79 73 4 10 6 21 11 29 8 29 12 46 48 52 108 19 116 71 116 92-2 31-29 58-58 62 42 19 85 29 133 29 92-2 177-41 238-106z m-159-541c-25-7-52-11-81-11-33 0-64 4-94 15 5 23 23 54 48 73 23 16 48 18 73 6 2 0 2 0 4-2 38-11 40-27 44-52 2-9 2-19 6-29z m-266 587c12-6 27-8 48-10 10 0 23-11 25-23 0-15-21-36-82-48-60-11-73-52-81-84-2-8-4-16-8-25-4-12-21-37-40-45 9 98 61 181 138 235z m-98-583l37 37c36-31 75-56 121-73 2 0 2-2 4-2 38-12 79-21 121-21 44 0 83 9 123 21h2c144 50 246 188 246 348 0 94-35 179-94 246l0 0 38 37c150-166 146-422-15-583-79-79-185-123-298-123-106 4-206 42-285 113z m156 416c-19-70-31-106-60-114-57-15-63-44-67-94-4-42 17-73 58-96 11-6 21-8 36-8 39 0 75 25 77 25 8 6 16 14 25 21 19 16 29 25 48 25 8 0 16-2 27-7 33-14 62-20 85-20 52 0 69 31 73 45 8 28-2 63-25 80-37 27-31 39-21 64 13 27 32 65-14 117-23 35-59 54-98 54-69 0-134-50-144-92z m142 50c27 0 50-12 64-35l2-2c30-31 21-48 11-73-15-29-31-69 33-117 8-6 13-21 11-31-5-15-21-17-34-17-19 0-41 7-71 19-14 6-29 11-43 11-34 0-57-19-75-36-7-6-15-12-21-17-6-4-31-18-54-18-7 0-11 2-17 4-27 14-38 29-35 54 4 46 8 50 33 58 54 15 71 69 89 144 9 17 57 56 107 56z" horiz-adv-x="1000" />

<glyph glyph-name="ecology" unicode="&#xe81b;" d="M894 358c39 30 106 94 106 188 0 121-123 256-127 262-4 5-10 7-15 7-6 0-10-2-14-7-4-6-127-139-127-262 0-129 127-202 133-206h2c-10-65-35-134-96-188-60 131-131 238-196 321 9 37 32 175-62 267-100 100-310 110-321 110-4 0-10-2-14-6-5-4-7-11-7-15 0-8 11-219 111-319 58-58 133-70 187-70 31 0 56 4 71 6 42-52 83-113 125-183-67 22-127 37-181 43-21 32-90 123-200 123-121 0-256-123-263-127-4-4-6-10-6-17s2-10 6-14c7-4 140-127 263-127 108 0 177 89 198 121 64-9 137-27 214-59 50-98 98-210 134-341 2-9 10-15 20-15 3 0 5 0 7 0 10 2 16 15 14 25-23 85-52 165-83 238 81 70 112 162 121 245z m-138 190c0 81 69 177 102 217 32-40 100-136 100-217 0-56-33-102-62-131-2 93-27 166-27 168-4 11-17 17-27 13s-17-17-13-27c0-2 29-83 25-183-31 20-98 77-98 160z m-487-363c-81 0-177 69-217 103 40 31 133 102 217 102 64 0 112-42 141-75-104 8-170-7-177-7-10-2-18-12-16-25 2-10 12-18 25-16 2 0 71 12 177 4-25-33-77-86-150-86z m185 296c-46 0-110 11-158 59-71 68-90 210-96 266 56-6 198-25 267-96 58-58 60-143 56-193-106 125-194 183-202 189-8 7-21 4-29-6-7-10-4-23 6-29 2-2 90-61 196-188-11 0-25-2-40-2z" horiz-adv-x="1000" />

<glyph glyph-name="education" unicode="&#xe81c;" d="M985 679c-156 52-327 52-485 2-158 50-329 50-485-2-9-2-15-10-15-19v-658c0-6 4-12 8-17 7-4 13-4 19-2 150 50 315 50 467 0h2 2 2c2 0 4 0 6 0l0 0c150 50 315 50 467 0 21-4 27 13 27 21v656c0 9-6 17-15 19z m-506-648c-71 21-144 32-219 32s-147-13-218-32v613c141 44 296 44 437 0v-613z m479 0c-70 21-143 32-218 32s-148-11-219-32v613c142 44 296 44 437 0v-613z m-58 550c-106 25-217 25-323 0-10-2-17-10-17-21v-175c0-6 5-20 25-20 100 18 205 18 305 0 2 0 20-2 25 20v175c2 11-5 19-15 21z m-25-171c-44 7-90 11-135 11-46 0-92-4-136-11v134c90 19 181 19 271 0v-134z m25-135c-106 25-217 25-323 0-10-2-19-15-14-25 2-10 14-19 25-15 160 40 306 0 308 0 10 0 19 7 21 17 2 8-4 21-17 23z m0-133c-104 18-215 18-321 0-10-2-19-13-16-25 2-11 12-19 25-17 141 31 308 0 308 0 10 0 19 6 21 17 2 12-7 23-17 25z m-479 152c-106 25-217 25-323 0-10-2-19-15-15-25 2-11 15-19 25-15 100 23 205 23 302 0 3 0 5 0 5 0 10 0 18 6 20 17 5 10-2 21-14 23z m0 133c-106 25-217 25-323 0-10-2-17-14-15-25s15-19 25-14c100 22 205 22 302 0 3 0 5 0 5 0 10 0 18 6 20 16 5 9-2 21-14 23z m0 131c-106 25-217 25-323 0-10-2-19-14-15-25 2-10 15-18 25-14 100 23 205 23 302 0 3 0 5 0 5 0 10 0 18 6 20 16 5 11-2 21-14 23z m0-393c-104 18-215 18-321 0-10-2-19-13-17-25 2-11 13-19 25-17 100 19 205 19 305 0 2 0 2 0 4 0 10 0 18 6 21 17 2 12-7 23-17 25z" horiz-adv-x="1000" />

<glyph glyph-name="engineering" unicode="&#xe81d;" d="M310 302c-75 0-137-62-137-137s62-138 137-138 138 63 138 138-60 137-138 137z m0-233c-52 0-95 44-95 96s43 95 95 95 96-43 96-95-41-96-96-96z m296 162l-81 17c-2 4-2 8-4 12l46 69c6 9 4 19-2 27l-65 65c-6 6-19 8-27 2l-69-46c-4 2-8 4-12 4l-17 82c-2 10-10 16-21 16h-89c-11 0-19-6-21-16l-17-82c-4-2-8-2-12-4l-69 46c-8 6-19 4-27-2l-65-65c-6-6-8-18-2-27l50-71c-2-4-4-8-4-12l-81-17c-11-2-17-10-17-21v-89c0-11 6-19 17-21l81-17c2-4 2-8 4-12l-46-69c-6-8-4-19 2-27l65-65c6-6 19-8 27-2l69 46c4-2 8-4 12-4l17-81c2-11 10-17 21-17h89c11 0 19 6 21 17l17 81c4 2 8 2 12 4l69-46c8-6 19-4 27 2l65 65c6 6 8 19 2 27l-46 69c2 4 4 8 4 12l81 17c11 2 17 10 17 21v89c-4 13-10 21-21 23z m-25-93l-77-15c-8-2-12-6-16-15-3-8-7-18-13-29-4-6-2-14 2-21l44-64-40-40-64 44c-7 4-15 4-21 2-8-4-19-8-29-13-7-2-13-8-15-16l-12-77h-57l-14 77c-2 8-6 12-15 16-8 3-19 7-29 13-6 4-15 2-21-2l-64-44-40 40 44 64c4 7 4 15 2 21-4 9-8 19-13 29-2 7-8 13-16 15l-77 15v56l77 14c8 2 12 7 16 15 2 8 7 19 13 29 4 6 2 15-2 21l-44 65 40 39 64-44c6-4 15-4 21-2 8 4 19 9 29 13 6 2 13 8 15 16l14 78h57l14-78c2-8 6-12 15-16 8-2 19-6 27-13 6-4 14-2 21 2l64 44 40-39-44-65c-4-6-4-15-2-21 4-10 8-19 13-29 2-6 8-13 16-15l77-14v-56z m150 566c-64 0-118-54-118-119s54-118 118-118 119 54 119 118-54 119-119 119z m0-196c-41 0-77 36-77 77s36 78 77 78 77-36 77-78-35-77-77-77z m267 109l-21 73c-2 10-10 16-21 16l-68-4c-3 2-3 4-5 6l23 65c4 10 0 19-8 25l-67 35c-8 5-18 5-27-4l-46-52c-2 0-4 0-6 0l-29 61c-4 8-15 12-25 10l-73-17c-10-2-17-12-15-21l5-68c-2-2-5-2-7-4l-64 22c-11 5-21 0-25-8l-38-67c-4-8-2-20 4-27l53-45c0-3 0-5 0-7l-61-29c-8-4-12-14-10-25l18-73c3-10 13-16 21-14l69 4c2-2 2-4 4-6l-23-65c-4-10 0-19 9-25l64-38c9-4 19-4 27 5l46 52c2 0 4 0 6 0l30-61c4-6 10-12 18-12 2 0 4 0 7 0l72 19c11 2 17 12 15 20l-4 69c2 2 4 2 6 4l65-23c10-4 18 0 25 9l37 64c4 9 4 19-4 27l-52 46c0 2 0 4 0 6l60 30c13 8 17 18 15 27z m-102-21c-6-4-11-11-13-17 0-8-2-16-4-25-2-8 0-14 6-21l48-41-20-36-61 21c-6 2-14 0-21-4-6-6-12-10-21-15-6-4-10-10-10-18l4-63-35-14-27 56c-4 6-11 10-17 12-8 0-17 2-25 4-2 0-2 0-4 0-6 0-13-2-17-6l-41-48-36 21 21 61c2 6 0 14-4 20-6 7-11 13-15 21-4 6-10 11-19 11l-62-5-10 40 56 27c6 4 10 11 12 17 0 8 2 16 4 25s0 14-6 21l-48 41 21 36 61-21c6-2 14 0 20 4 7 6 13 10 21 15 6 4 11 10 11 18l-5 63 40 10 27-56c4-6 11-10 17-12 8 0 16-3 25-5s14 0 21 7l41 48 36-21-21-61c-2-6 0-14 4-21 6-6 10-12 15-20 4-7 10-11 18-11l63 4 10-39-60-23z" horiz-adv-x="1000" />

<glyph glyph-name="material-science" unicode="&#xe81e;" d="M979 571h-189c-11 67-67 117-138 117-31 0-58-11-81-28l-136 136c-8 8-20 8-29 0s-8-21 0-29l136-136c-17-23-27-52-27-81 0-31 10-58 27-81l-125-125c-19 10-40 14-63 14-31 0-58-10-81-27l-135 136c-9 8-21 8-30 0s-8-21 0-29l136-136c-17-23-27-52-27-81 0-31 10-58 27-81l-136-136c-8-8-8-21 0-29 5-4 11-6 15-6 6 0 10 2 15 6l135 135c23-16 52-27 81-27 69 0 127 52 138 117h189c13 0 21 8 21 21s-8 21-21 21h-189c-4 31-19 58-40 77l121 121c23-17 52-27 81-27 69 0 127 52 138 116h187c13 0 21 9 21 21s-8 21-21 21z m-529-352c0-54-44-96-96-96-54 0-96 44-96 96 5 79 71 96 96 96 52 0 96-42 96-96z m202 233c-54 0-96 44-96 96 0 27 11 50 27 69l0 0 0 0c17 16 42 27 69 27 54 0 96-44 96-96s-42-96-96-96z m-206-437c-44 0-81-36-81-82s35-81 81-81c44 0 81 35 81 81s-35 82-81 82z m0-121c-21 0-40 16-40 39s17 40 40 40c21 0 39-17 39-40s-16-39-39-39z m383 791c44 0 81 36 81 82s-35 81-81 81c-44 0-81-35-81-81s37-82 81-82z m0 121c21 0 40-16 40-39 0-21-17-40-40-40-21 0-39 17-39 40 0 23 18 39 39 39z m0-379c-44 0-81-35-81-81s35-81 81-81c44 0 81 35 81 81s-35 81-81 81z m0-119c-21 0-39 17-39 40 0 21 16 40 39 40 21 0 40-17 40-40s-17-40-40-40z m-444 161c44 0 82 35 82 81s-36 81-82 81c-43 0-81-35-81-81s38-81 81-81z m0 121c21 0 40-17 40-40 0-21-17-40-40-40-20 0-39 17-39 40 2 21 19 40 39 40z m-222-363c0 46-38 81-82 81-46 0-81-35-81-81s35-81 81-81c44 0 82 37 82 81z m-82-39c-21 0-39 16-39 39s16 40 39 40c21 0 40-17 40-40s-19-39-40-39z" horiz-adv-x="1000" />

<glyph glyph-name="mathematics" unicode="&#xe81f;" d="M194-77c-21 0-42 2-63 6-23 4-43 13-64 23l-13 6 6 94c3 17 9 29 21 38 11 8 27 12 54 12 25 0 44 4 50 13 9 8 13 25 13 50v433h-142v90c0 10 2 20 7 31 4 10 10 21 18 29 9 8 17 15 29 21 13 6 25 8 40 8h796v-98c0-21-6-41-21-56-15-17-35-25-60-25h-63v-667h-235v667h-134v-438c0-35-4-66-12-95-8-30-23-57-44-78-19-20-46-39-75-50-31-10-67-14-108-14z m-96 58c12-6 27-10 40-12 58-11 110-4 147 8 25 8 44 23 61 40 14 16 27 37 33 60 9 25 11 52 11 83v480h216v-667h152v667h105c20 0 27 8 29 10 6 8 10 19 10 29v56h-752c-8 0-15-2-21-4-6-2-12-6-16-12-5-4-9-9-11-15-2-4-4-10-4-16v-48h140v-475c0-36-9-61-23-77-17-17-44-25-82-25-23 0-29-5-29-5 0 0-4-2-4-10l-2-67z" horiz-adv-x="1000" />

<glyph glyph-name="medicine" unicode="&#xe820;" d="M933 358l-425 425c-41 44-98 67-158 67s-117-23-160-67c-44-41-67-100-67-160s23-117 67-160l77-78c-154-18-267-89-267-177v-177c0-102 154-181 352-181 167 0 304 58 342 137 25-10 52-14 79-14 58 0 117 23 160 67 90 87 90 231 0 318z m-714 136c-36 35-54 81-54 131s18 96 54 131c35 34 81 52 131 52s96-18 131-54l198-198-181-181c-44 10-92 15-144 15-10 0-21 0-31 0l-104 104z m319-398l-319 239c41 9 85 15 133 15 169 0 311-65 311-142 2-43-50-85-125-112z m-369 225l316-240c-41-8-85-14-133-14-169 2-310 66-310 141 0 46 50 88 127 113z m183-429c-169 0-310 64-310 141v90c58-56 175-96 310-96s252 38 311 96v-90c2-77-142-141-311-141z m552 177c-52-52-131-67-200-40 0 2 0 2 0 4v177c0 67-64 123-162 155l164 164 198-198c73-73 73-191 0-262z" horiz-adv-x="1000" />

<glyph glyph-name="palaeontology" unicode="&#xe821;" d="M733-144c46 0 92 15 130 46 87 71 100 200 29 288l-304 368c-9 9-21 11-30 2s-10-20-2-29l302-368c57-69 46-171-23-230-68-56-170-46-229 23l-506 619c-6 8-21 10-29 2s-11-21-2-29l508-619c38-48 98-73 156-73m-85 138c21-27 54-40 85-40 25 0 50 8 71 25 23 19 38 46 40 75 2 29-6 59-25 81-19 23-46 38-75 40-29 2-59-6-81-25s-38-46-40-75c-2-29 6-58 25-81m42 123c12 10 27 14 43 14 2 0 5 0 7 0 18-2 35-10 45-25 25-29 19-73-10-96s-73-20-96 11c-23 29-19 73 11 96m-438 462c-8-8-10-21-2-29l288-352c4-4 10-8 16-8 4 0 9 2 13 4 8 8 10 21 2 29l-288 354c-8 8-21 11-29 2m338-248c4 0 8 2 12 4 8 9 11 21 2 30l-385 473c-9 8-21 10-29 2-9-7-11-21-2-30l387-472c4-5 8-7 15-7" horiz-adv-x="1000" />

<glyph glyph-name="neuroscience" unicode="&#xe822;" d="M998 517c0 108-63 202-152 229-38 67-100 106-167 106-79 0-148-54-181-131-33 75-102 129-181 129-69 0-129-40-167-106-90-27-152-121-152-227 0-44 10-86 29-123-19-40-29-81-29-125 0-94 48-179 121-217 14-117 98-202 200-202 79 0 148 54 181 131 33-77 102-131 181-131 102 0 186 85 200 202 73 38 121 123 121 217 0 44-10 85-29 123 15 37 25 79 25 125z m-681-625c-79 0-146 73-159 166 0 2 2 5 2 9 0 43 25 81 59 89 10 2 19 15 14 25-2 11-14 19-25 15-43-11-77-50-87-98-50 33-83 98-83 171 0 41 10 79 29 112l0 0c27 29 62 32 89 11 9-7 23-7 29 4 7 8 7 23-4 29-37 29-85 29-123 2-12 27-18 58-18 90 0 91 54 173 127 189h2c33 0 64-31 71-73 2-10 10-16 20-16 3 0 3 0 5 0 10 2 18 12 16 23-8 52-41 89-83 102 29 41 73 66 119 66 87 0 160-87 160-193v-88h-33c-25 0-44 21-44 44 0 12-8 21-21 21s-21-9-21-21c0-48 40-86 86-86h33v-237h-39c-73 0-138 48-161 117-4 10-14 16-27 14-10-4-17-14-15-27 28-87 109-146 200-146h42v-121c0-12-2-25-2-37l-15 15c-16 16-37 25-60 25s-44-9-60-25c-9-9-9-21 0-30s20-8 29 0c16 17 46 17 62 0l32-31c-28-65-82-110-146-110z m556 206c-10 48-44 87-88 98-10 2-22-4-25-15s5-23 15-25c33-8 58-46 58-89 0-2 0-7 2-9-10-93-79-166-158-166-62 0-119 45-144 110l32 31c16 17 45 17 62 0 8-8 21-8 29 0s9 21 0 30c-16 16-37 25-60 25s-44-9-61-25l-14-15c-2 12-2 25-2 37v119h39c92 0 171 59 200 146 5 10-2 23-14 27-11 4-23-2-27-14-23-69-86-117-161-117h-37v239h33c48 0 86 40 86 86 0 12-9 21-21 21s-21-9-21-21c0-25-21-44-44-44h-33v88c0 106 71 193 160 193 46 0 90-25 119-66-42-13-75-52-83-102-2-11 6-23 16-23 2 0 2 0 4 0 11 0 19 6 21 16 7 42 38 73 71 73h2c73-18 127-98 127-189 0-32-6-63-18-90-38 27-88 27-125-2-9-6-11-21-5-29 7-8 21-11 30-4 27 23 62 18 87-9l0 0c19-33 29-73 29-112 2-75-31-140-81-173z" horiz-adv-x="1000" />
</font>
</defs>
</svg>
